<?xml version="1.0" encoding="UTF-8"?>
<!DOCTYPE svg PUBLIC "-//W3C//DTD SVG 1.1//EN" "http://www.w3.org/Graphics/SVG/1.1/DTD/svg11.dtd">
<svg xmlns="http://www.w3.org/2000/svg" xml:space="preserve" xmlns:xlink="http://www.w3.org/1999/xlink" width="1000" height="960" viewBox="0 0 1000 960"><g transform="scale(3.2) translate(3.5 0)" fill="rgb(226, 98, 107)"><path d="M224.88,93.12h19.39a5,5,0,0,1,5,5v18.73H254V98.12a9.68,9.68,0,0,0-9.68-9.68H224.88Z"></path><path d="M50.73,116.85V98.12a5,5,0,0,1,5-5H73.8V88.44H55.73a9.68,9.68,0,0,0-9.68,9.68v18.73Z"></path><path d="M73.8,291.67H55.73a5,5,0,0,1-5-5V267.94H46.05v18.73a9.68,9.68,0,0,0,9.68,9.68H73.8Z"></path><path d="M249.27,267.94v18.73a5,5,0,0,1-5,5H224.88v4.68h19.39a9.68,9.68,0,0,0,9.68-9.68V267.94Z"></path><path d="M244.75,3.65H55.45A9.25,9.25,0,0,0,46.2,12.9V54.46a9.25,9.25,0,0,0,9.25,9.26H126a2.32,2.32,0,0,1,1.64.67l20.74,20.74a2.33,2.33,0,0,0,3.28,0l20.75-20.74a2.28,2.28,0,0,1,1.64-.67h70.58a9.25,9.25,0,0,0,9.25-9.26V12.9A9.18,9.18,0,0,0,244.75,3.65Z"></path></g><text x="50%" y="108.9" dominant-baseline="middle" text-anchor="middle" style="font-size:64px;fill:#ffffff;font-family:Arial, sans-serif;font-weight:bold;">Scan to Submit</text><rect x="205" y="330" width="570" height="570" fill="rgb(255,255,255)" rx="10" /><g transform="scale(0.55) translate(390, 615.5)"><rect x="0" y="0" width="1000" height="1000" fill="#ffffff"/><g transform="scale(40)"><g transform="translate(0,0)"><g><g transform="translate(3.5,3.5)"><path fill-rule="evenodd" d="M-3.5 0C-3.5 -3.5 -3.5 -3.5 0 -3.5M-3.5 0C-3.5 3.5 -3.5 3.5 0 3.5M0 3.5C3.5 3.5 3.5 3.5 3.5 0M3.5 0C3.5 -3.5 3.5 -3.5 0 -3.5M3.5 0A0 0 0 0 1 0 3.5A0 0 0 0 1 -3.5 0A0 0 0 0 1 0 -3.5A0 0 0 0 1 3.5 0ZM-2.5 0C-2.5 -2.5 -2.5 -2.5 0 -2.5M-2.5 0C-2.5 2.5 -2.5 2.5 0 2.5M0 2.5C2.5 2.5 2.5 2.5 2.5 0M2.5 0C2.5 -2.5 2.5 -2.5 0 -2.5M2.5 0A0 0 0 0 1 0 2.5A0 0 0 0 1 -2.5 0A0 0 0 0 1 0 -2.5A0 0 0 0 1 2.5 0Z" fill="#e2626b"/><path fill-rule="evenodd" d="M-1.5 0C-1.5 -1.5 -1.5 -1.5 0 -1.5M-1.5 0C-1.5 1.5 -1.5 1.5 0 1.5M1.5 0C1.5 -1.5 1.5 -1.5 0 -1.5M1.5 0L1.5 0L0 1.5L1.5 1.5ZA0 0 0 0 1 0 1.5A0 0 0 0 1 -1.5 0A0 0 0 0 1 0 -1.5A0 0 0 0 1 1.5 0" fill="#e2626b"/></g></g><g><g transform="translate(21.5,3.5)"><g transform="rotate(90)"><path fill-rule="evenodd" d="M-3.5 0C-3.5 -3.5 -3.5 -3.5 0 -3.5M-3.5 0C-3.5 3.5 -3.5 3.5 0 3.5M0 3.5C3.5 3.5 3.5 3.5 3.5 0M3.5 0C3.5 -3.5 3.5 -3.5 0 -3.5M3.5 0A0 0 0 0 1 0 3.5A0 0 0 0 1 -3.5 0A0 0 0 0 1 0 -3.5A0 0 0 0 1 3.5 0ZM-2.5 0C-2.5 -2.5 -2.5 -2.5 0 -2.5M-2.5 0C-2.5 2.5 -2.5 2.5 0 2.5M0 2.5C2.5 2.5 2.5 2.5 2.5 0M2.5 0C2.5 -2.5 2.5 -2.5 0 -2.5M2.5 0A0 0 0 0 1 0 2.5A0 0 0 0 1 -2.5 0A0 0 0 0 1 0 -2.5A0 0 0 0 1 2.5 0Z" fill="#e2626b"/><path fill-rule="evenodd" d="M-1.5 0C-1.5 -1.5 -1.5 -1.5 0 -1.5M-1.5 0C-1.5 1.5 -1.5 1.5 0 1.5M1.5 0C1.5 -1.5 1.5 -1.5 0 -1.5M1.5 0L1.5 0L0 1.5L1.5 1.5ZA0 0 0 0 1 0 1.5A0 0 0 0 1 -1.5 0A0 0 0 0 1 0 -1.5A0 0 0 0 1 1.5 0" fill="#e2626b"/></g></g></g><g><g transform="translate(3.5,21.5)"><g transform="rotate(-90)"><path fill-rule="evenodd" d="M-3.5 0C-3.5 -3.5 -3.5 -3.5 0 -3.5M-3.5 0C-3.5 3.5 -3.5 3.5 0 3.5M0 3.5C3.5 3.5 3.5 3.5 3.5 0M3.5 0C3.5 -3.5 3.5 -3.5 0 -3.5M3.5 0A0 0 0 0 1 0 3.5A0 0 0 0 1 -3.5 0A0 0 0 0 1 0 -3.5A0 0 0 0 1 3.5 0ZM-2.5 0C-2.5 -2.5 -2.5 -2.5 0 -2.5M-2.5 0C-2.5 2.5 -2.5 2.5 0 2.5M0 2.5C2.5 2.5 2.5 2.5 2.5 0M2.5 0C2.5 -2.5 2.5 -2.5 0 -2.5M2.5 0A0 0 0 0 1 0 2.5A0 0 0 0 1 -2.5 0A0 0 0 0 1 0 -2.5A0 0 0 0 1 2.5 0Z" fill="#e2626b"/><path fill-rule="evenodd" d="M-1.5 0C-1.5 -1.5 -1.5 -1.5 0 -1.5M-1.5 0C-1.5 1.5 -1.5 1.5 0 1.5M1.5 0C1.5 -1.5 1.5 -1.5 0 -1.5M1.5 0L1.5 0L0 1.5L1.5 1.5ZA0 0 0 0 1 0 1.5A0 0 0 0 1 -1.5 0A0 0 0 0 1 0 -1.5A0 0 0 0 1 1.5 0" fill="#e2626b"/></g></g></g><path fill-rule="evenodd" d="M10 0L10 1L9 1L9 2L8 2L8 8L9 8L9 9L7 9L7 8L2 8L2 9L7 9L7 10L5 10L5 11L4 11L4 10L3 10L3 11L2 11L2 10L1 10L1 8L0 8L0 17L1 17L1 14L3 14L3 15L4 15L4 16L2 16L2 17L5 17L5 15L4 15L4 14L5 14L5 13L7 13L7 14L6 14L6 15L7 15L7 16L6 16L6 17L8 17L8 18L9 18L9 17L8 17L8 14L9 14L9 13L10 13L10 14L11 14L11 15L9 15L9 16L11 16L11 17L10 17L10 18L11 18L11 17L12 17L12 21L13 21L13 19L14 19L14 22L12 22L12 23L11 23L11 22L10 22L10 24L8 24L8 25L10 25L10 24L12 24L12 23L14 23L14 24L15 24L15 25L18 25L18 24L22 24L22 25L25 25L25 24L24 24L24 23L25 23L25 21L23 21L23 22L22 22L22 23L21 23L21 21L22 21L22 19L25 19L25 14L24 14L24 13L25 13L25 12L23 12L23 14L22 14L22 15L23 15L23 16L24 16L24 18L22 18L22 19L21 19L21 17L22 17L22 16L17 16L17 15L19 15L19 14L20 14L20 15L21 15L21 13L22 13L22 12L18 12L18 11L19 11L19 10L20 10L20 11L21 11L21 9L23 9L23 8L18 8L18 9L16 9L16 8L17 8L17 6L16 6L16 8L15 8L15 6L14 6L14 5L17 5L17 2L16 2L16 1L17 1L17 0L14 0L14 1L12 1L12 0ZM10 1L10 2L11 2L11 1ZM14 1L14 3L16 3L16 2L15 2L15 1ZM9 3L9 4L10 4L10 5L11 5L11 7L12 7L12 9L13 9L13 10L14 10L14 9L15 9L15 11L12 11L12 10L11 10L11 11L12 11L12 12L11 12L11 14L14 14L14 13L15 13L15 15L12 15L12 16L16 16L16 15L17 15L17 13L18 13L18 14L19 14L19 13L18 13L18 12L17 12L17 10L16 10L16 9L15 9L15 8L14 8L14 6L13 6L13 7L12 7L12 5L14 5L14 4L13 4L13 3L12 3L12 4L10 4L10 3ZM9 6L9 7L10 7L10 6ZM18 9L18 10L19 10L19 9ZM24 9L24 10L25 10L25 9ZM7 10L7 11L5 11L5 12L4 12L4 11L3 11L3 12L2 12L2 11L1 11L1 13L3 13L3 14L4 14L4 13L5 13L5 12L7 12L7 11L8 11L8 13L9 13L9 12L10 12L10 10L9 10L9 11L8 11L8 10ZM22 10L22 11L23 11L23 10ZM3 12L3 13L4 13L4 12ZM12 12L12 13L14 13L14 12ZM15 12L15 13L17 13L17 12ZM13 17L13 18L14 18L14 19L15 19L15 21L16 21L16 18L15 18L15 17ZM17 17L17 20L20 20L20 17ZM18 18L18 19L19 19L19 18ZM8 19L8 23L9 23L9 21L10 21L10 19ZM18 21L18 22L14 22L14 23L15 23L15 24L17 24L17 23L18 23L18 22L19 22L19 23L20 23L20 21ZM23 22L23 23L22 23L22 24L23 24L23 23L24 23L24 22Z" fill="#e2626b"/></g></g></g></svg>